<svg xmlns="http://www.w3.org/2000/svg" viewBox="400 855 1200 290" xml:space="preserve">
<g fill="#1C2E4A">
  <!-- Icon mark -->
  <polygon points="566.72,947.45 547.06,926.76 474.22,996.02 473.93,996.29 473.85,996.37 523.44,1048.54 543.45,1069.58 544.02,1069.04 616.66,999.98 595.61,977.84 595.32,977.54 588.53,970.34 588.54,970.33 574.38,955.38 560.04,969.14 553.35,975.55 567.52,990.5 574.02,984.26 588.57,999.27 581.86,1005.66 544.16,1041.49 501.94,997.08 546.35,954.85 552.37,961.2 554.08,959.57"/>
  <rect x="533.85" y="986.77" transform="matrix(0.7247 -0.689 0.689 0.7247 -537.6822 650.4631)" width="22.81" height="22.81"/>
  <polygon points="548.64,864.12 440.13,967.29 439.95,967.47 459.19,987.78 547.63,903.71 639.71,1000.56 551.09,1084.77 570.38,1105.11 571.15,1104.36 679.31,1001.56"/>
  <polygon points="427.74,979.07 407.45,998.32 537.89,1135.88 541.82,1132.16 541.87,1132.22 558.21,1116.68 427.77,979.04"/>
  <!-- DatumGrid text -->
  <path d="M714.03,1061.19V940.9h47.14c34.39,0,54.3,26.19,54.3,60.41c0,34.22-19.9,59.88-54.3,59.88H714.03z M739.51,1037.97h21.65c19.03,0,28.81-16.94,28.81-36.66c0-19.9-9.78-37.19-28.81-37.19h-21.65V1037.97z"/>
  <path d="M894.02,1051.94c-5.06,7.68-17.63,10.82-23.74,10.82c-20.77,0-41.55-16.41-41.55-42.42c0-26.01,20.78-42.42,41.55-42.42c5.41,0,17.11,1.92,23.74,10.82v-9.08h24.09v81.53h-24.09V1051.94z M874.3,1039.72c9.95,0,19.73-7.16,19.73-19.38c0-12.05-9.78-19.38-19.73-19.38c-10.3,0-20.43,7.68-20.43,19.38C853.87,1032.04,864,1039.72,874.3,1039.72z"/>
  <path d="M989.35,979.66v19.2h-17.11v62.33h-24.09v-62.33h-14.84v-19.2h14.84v-31.25h24.09v31.25H989.35z"/>
  <path d="M1056.74,979.66h24.27v81.53h-24.27v-11.17c-4.37,8.21-13.27,12.92-21.12,12.92c-18.33,0-32.3-11.35-32.3-34.57v-48.71h24.27v43.47c0,13.09,8.9,16.24,14.49,16.24c7.51,0,14.67-4.19,14.67-16.59V979.66z"/>
  <path d="M1179.48,1018.07v43.12h-24.27v-44c-0.17-10.47-6.46-15.71-13.44-15.71c-7.51,0-14.14,4.19-14.14,16.59v43.12h-24.27v-81.53h24.27v11.87c4.02-8.55,12.4-13.44,21.3-13.44c12.92,0,21.65,4.71,26.19,14.32c8.03-12.75,18.51-14.49,24.44-14.49c19.55,0,31.43,12.4,31.43,37.01v46.27h-24.09v-43.47c0-10.65-6.28-16.24-13.44-16.24C1185.76,1001.48,1179.48,1006.2,1179.48,1018.07z"/>
  <path d="M1335.21,978.96c-6.28-7.68-15.01-12.57-25.31-12.57c-18.16,0-32.47,15.54-32.47,34.74c0,18.85,14.32,35.09,32.47,35.09c14.14,0,24.96-4.89,27.58-16.06h-33.69v-23.39h65.47c0,46.09-24.97,65.99-59.36,65.99c-34.74,0-61.98-27.76-61.98-61.63c0-34.04,27.23-61.8,61.98-61.8c19.73,0,36.49,8.21,46.96,21.3L1335.21,978.96z"/>
  <path d="M1411.51,1061.19h-27.76v-81.36h26.36v20.08c4.19-15.36,15.19-22.17,25.66-22.17c3.49,0,7.33,0.17,12.05,2.27l-6.81,26.19c-5.76-2.09-9.95-2.09-12.57-2.09c-10.47,0-16.93,5.93-16.93,30.38V1061.19z"/>
  <path d="M1472.44,937.06c9.25,0,16.59,6.81,16.59,15.71c0,8.9-7.33,15.89-16.59,15.89c-9.08,0-16.76-6.98-16.76-15.89C1455.68,943.87,1463.36,937.06,1472.44,937.06z M1458.65,979.84h27.76v81.36h-27.76V979.84z"/>
  <path d="M1564.79,937.06h27.76v124.13h-26.19v-11.7c-4.71,9.78-15.36,13.27-24.09,13.27c-20.08,0-39.63-15.89-39.63-42.42c0-26.36,19.55-42.6,39.63-42.6c9.78,0,17.11,3.84,22.52,9.6V937.06z M1547.86,1037.45c9.25,0,16.94-7.68,16.94-16.93c0-9.25-7.68-16.94-16.94-16.94s-16.93,7.68-16.93,16.94C1530.93,1029.77,1538.61,1037.45,1547.86,1037.45z"/>
</g>
</svg>
