<svg xmlns="http://www.w3.org/2000/svg" viewBox="400 855 290 290" xml:space="preserve">
<g fill="#1C2E4A">
  <polygon points="566.72,947.45 547.06,926.76 474.22,996.02 473.93,996.29 473.85,996.37 523.44,1048.54 543.45,1069.58 544.02,1069.04 616.66,999.98 595.61,977.84 595.32,977.54 588.53,970.34 588.54,970.33 574.38,955.38 560.04,969.14 553.35,975.55 567.52,990.5 574.02,984.26 588.57,999.27 581.86,1005.66 544.16,1041.49 501.94,997.08 546.35,954.85 552.37,961.2 554.08,959.57"/>
  <rect x="533.85" y="986.77" transform="matrix(0.7247 -0.689 0.689 0.7247 -537.6822 650.4631)" width="22.81" height="22.81"/>
  <polygon points="548.64,864.12 440.13,967.29 439.95,967.47 459.19,987.78 547.63,903.71 639.71,1000.56 551.09,1084.77 570.38,1105.11 571.15,1104.36 679.31,1001.56"/>
  <polygon points="427.74,979.07 407.45,998.32 537.89,1135.88 541.82,1132.16 541.87,1132.22 558.21,1116.68 427.77,979.04"/>
</g>
</svg>
